<svg xmlns="http://www.w3.org/2000/svg" width="1060" height="320" viewBox="0 0 1060 320" role="img" aria-label="Vardr Intelligence logo">
  <defs>
    <linearGradient id="bg" x1="0" y1="0" x2="1" y2="1">
      <stop offset="0" stop-color="#0a0f33"/>
      <stop offset="1" stop-color="#0a1030"/>
    </linearGradient>
    <linearGradient id="shieldStroke" x1="0" y1="0" x2="1" y2="1">
      <stop offset="0" stop-color="#1e69ff"/>
      <stop offset="1" stop-color="#31d0e2"/>
    </linearGradient>
    <linearGradient id="eyeStroke" x1="0" y1="0" x2="1" y2="1">
      <stop offset="0" stop-color="#2d84ff"/>
      <stop offset="1" stop-color="#2cd5df"/>
    </linearGradient>
    <linearGradient id="intel" x1="0" y1="0" x2="1" y2="0">
      <stop offset="0" stop-color="#54e4ca"/>
      <stop offset="1" stop-color="#69e0bd"/>
    </linearGradient>
  </defs>

  <rect width="1060" height="320" fill="url(#bg)"/>

  <path d="M85 38 C120 22 174 22 216 40 L220 44 L218 186 C216 228 180 262 147 280 C108 261 79 239 70 198 L66 46 Z"
        fill="none" stroke="url(#shieldStroke)" stroke-width="14" stroke-linejoin="round"/>

  <path d="M82 150 C108 116 147 99 198 112 C178 145 151 171 120 187 C104 177 92 165 82 150 Z"
        fill="#11265f"/>
  <path d="M70 172 C110 126 177 120 223 172" fill="none" stroke="url(#eyeStroke)" stroke-width="14" stroke-linecap="round"/>
  <path d="M223 172 C183 217 116 224 70 172" fill="none" stroke="url(#eyeStroke)" stroke-width="14" stroke-linecap="round"/>
  <circle cx="146" cy="172" r="21" fill="#ffffff"/>

  <text x="300" y="178" fill="#f7fbff" font-size="128" font-family="Inter, Arial, sans-serif" font-weight="800" letter-spacing="-2">
    Vardr
  </text>
  <text x="302" y="250" fill="url(#intel)" font-size="66" font-family="Inter, Arial, sans-serif" font-weight="700" letter-spacing="8">
    INTELLIGENCE
  </text>
</svg>
